<svg data-v-2cb57da0="" version="1.0" xmlns="http://www.w3.org/2000/svg" xmlns:xlink="http://www.w3.org/1999/xlink" width="100%" height="100%" viewBox="0 0 340.000000 250.000000" preserveAspectRatio="xMidYMid meet" color-interpolation-filters="sRGB" style="margin: auto;"><rect data-v-2cb57da0="" x="0" y="0" width="100%" height="100%" fill="#ffffff" fill-opacity="0" class="background"></rect> <rect data-v-2cb57da0="" x="0" y="0" width="100%" height="100%" fill="url(#watermark)" fill-opacity="1" class="watermarklayer"></rect> <g data-v-2cb57da0="" fill="#ff0844" class="icon-text-wrapper icon-svg-group iconsvg" transform="translate(120,75)"><g fill="#333" class="iconsvg-imagesvg icon_container" transform="matrix(1,0,0,1,0,0)" mask="url(#5b1fab92-983a-42b0-9d26-771cecdcee2d)" opacity="1"><rect fill="#ff0844" fill-opacity="0" stroke-width="2" x="0" y="0" width="100" height="100" class="image-rect"></rect> <svg viewBox="0 0 60 67.932475119731" x="0" y="0" width="100" height="100" class="image-svg-svg bn" style="overflow: visible;"><g hollow-target="iconBnOutline"><g mask="url(#099c952b-8bfc-4fb0-81ef-e5df94455376)"><svg xmlns="http://www.w3.org/2000/svg" xmlns:xlink="http://www.w3.org/1999/xlink" xml:space="preserve" version="1.1" style="shape-rendering: geometricprecision; text-rendering: geometricprecision; overflow: visible;" viewBox="0 0 312 353.25" x="0" y="0" fill-rule="evenodd" clip-rule="evenodd" width="60" height="67.932475119731" filtersec="colorsf7956487459" filter="url(#f22artc1TKC0_J58Zx8Oo)"><g transform="scale(1, 1) skewX(0)"><defs><filter id="f22artc1TKC0_J58Zx8Oo"><feColorMatrix type="matrix" values="0 0 0 0 0.19921875  0 0 0 0 0.19921875  0 0 0 0 0.19921875  0 0 0 1 0"></feColorMatrix></filter></defs><g><path class="fil0" d="M312 99l0 155c0,8 -4,15 -11,19l-135 78c-6,3 -14,3 -21,0l-134 -78c-7,-4 -11,-11 -11,-19l0 -155c0,-8 4,-14 11,-18l134 -78c7,-4 15,-4 21,0l135 78c7,4 11,10 11,18zm-32 -1l-118 -68c-4,-3 -8,-3 -12,0l-118 68c-4,2 -7,6 -7,11l0 143 125 72c4,2 8,2 12,0l118 -68c4,-2 6,-6 6,-11l0 -136c0,-5 -2,-9 -6,-11z"></path></g></g></svg></g> <g filter="url(#colors664457861)"><svg xmlns="http://www.w3.org/2000/svg" xmlns:xlink="http://www.w3.org/1999/xlink" viewBox="0 0 77.83200000000001 51.264" width="45" height="50.94936" x="7.5" y="8.491557559865498" class="image-svg-letter"><path transform="translate(1.008 50.544000000000004)" d="M12.02 0.36C12.02 0.58 12.17 0.72 12.38 0.72L30.74 0.72C30.96 0.72 31.10 0.58 31.10 0.36L31.10-0.50C31.10-0.72 30.96-0.86 30.74-0.86L25.63-0.86L25.63-23.47L36.22-48.96L40.61-48.96C40.82-48.96 40.97-49.10 40.97-49.32L40.97-50.18C40.97-50.40 40.82-50.54 40.61-50.54L30.10-50.54C29.88-50.54 29.74-50.40 29.74-50.18L29.74-49.32C29.74-49.10 29.88-48.96 30.10-48.96L34.56-48.96C31.25-40.90 27.86-33.12 24.55-25.06L13.32-48.96L18.86-48.96C19.08-48.96 19.22-49.10 19.22-49.32L19.22-50.18C19.22-50.40 19.08-50.54 18.86-50.54L-0.65-50.54C-0.86-50.54-1.01-50.40-1.01-50.18L-1.01-49.32C-1.01-49.10-0.86-48.96-0.65-48.96L3.67-48.96L17.42-20.09L17.42-0.86L12.38-0.86C12.17-0.86 12.02-0.72 12.02-0.50ZM42.19 0.22C42.05 0.50 42.19 0.72 42.48 0.72L76.46 0.72C76.68 0.72 76.82 0.58 76.82 0.36L76.82-18.50C76.82-18.86 76.18-18.94 76.10-18.58C74.23-7.70 69.05-0.86 59.26-0.86L51.55-0.86L76.39-50.04C76.54-50.33 76.39-50.54 76.10-50.54L45.50-50.54C45.29-50.54 45.14-50.40 45.14-50.18L45.14-34.34C45.14-33.98 45.79-33.91 45.86-34.27C47.16-42.26 51.55-48.96 59.04-48.96L66.82-48.96Z"></path></svg></g></g><mask id="099c952b-8bfc-4fb0-81ef-e5df94455376"><g fill="white"><svg xmlns="http://www.w3.org/2000/svg" xmlns:xlink="http://www.w3.org/1999/xlink" xml:space="preserve" version="1.1" style="shape-rendering: geometricprecision; text-rendering: geometricprecision; overflow: visible;" viewBox="0 0 312 353.25" x="0" y="0" fill-rule="evenodd" clip-rule="evenodd" width="60" height="67.932475119731" filtersec="colorsf7956487459"><g transform="scale(1, 1) skewX(0)"><defs></defs><g><path d="M312 99l0 155c0,8 -4,15 -11,19l-135 78c-6,3 -14,3 -21,0l-134 -78c-7,-4 -11,-11 -11,-19l0 -155c0,-8 4,-14 11,-18l134 -78c7,-4 15,-4 21,0l135 78c7,4 11,10 11,18zm-32 -1l-118 -68c-4,-3 -8,-3 -12,0l-118 68c-4,2 -7,6 -7,11l0 143 125 72c4,2 8,2 12,0l118 -68c4,-2 6,-6 6,-11l0 -136c0,-5 -2,-9 -6,-11z"></path></g></g></svg></g> <g fill="black" filter="url(#b47d4054-819f-4a55-b938-a8223e8ddd58)"><svg xmlns="http://www.w3.org/2000/svg" xmlns:xlink="http://www.w3.org/1999/xlink" viewBox="0 0 77.83200000000001 51.264" width="45" height="50.94936" x="7.5" y="8.491557559865498" class="image-svg-letter"><path transform="translate(1.008 50.544000000000004)" d="M12.02 0.36C12.02 0.58 12.17 0.72 12.38 0.72L30.74 0.72C30.96 0.72 31.10 0.58 31.10 0.36L31.10-0.50C31.10-0.72 30.96-0.86 30.74-0.86L25.63-0.86L25.63-23.47L36.22-48.96L40.61-48.96C40.82-48.96 40.97-49.10 40.97-49.32L40.97-50.18C40.97-50.40 40.82-50.54 40.61-50.54L30.10-50.54C29.88-50.54 29.74-50.40 29.74-50.18L29.74-49.32C29.74-49.10 29.88-48.96 30.10-48.96L34.56-48.96C31.25-40.90 27.86-33.12 24.55-25.06L13.32-48.96L18.86-48.96C19.08-48.96 19.22-49.10 19.22-49.32L19.22-50.18C19.22-50.40 19.08-50.54 18.86-50.54L-0.65-50.54C-0.86-50.54-1.01-50.40-1.01-50.18L-1.01-49.32C-1.01-49.10-0.86-48.96-0.65-48.96L3.67-48.96L17.42-20.09L17.42-0.86L12.38-0.86C12.17-0.86 12.02-0.72 12.02-0.50ZM42.19 0.22C42.05 0.50 42.19 0.72 42.48 0.72L76.46 0.72C76.68 0.72 76.82 0.58 76.82 0.36L76.82-18.50C76.82-18.86 76.18-18.94 76.10-18.58C74.23-7.70 69.05-0.86 59.26-0.86L51.55-0.86L76.39-50.04C76.54-50.33 76.39-50.54 76.10-50.54L45.50-50.54C45.29-50.54 45.14-50.40 45.14-50.18L45.14-34.34C45.14-33.98 45.79-33.91 45.86-34.27C47.16-42.26 51.55-48.96 59.04-48.96L66.82-48.96Z"></path></svg></g><defs><filter id="b47d4054-819f-4a55-b938-a8223e8ddd58"><feGaussianBlur in="SourceGraphic" stdDeviation="1.26"></feGaussianBlur><feComponentTransfer><feFuncA type="discrete" tableValues="0 1 1 1 1 1 1 1 1 1 1 1 1 1 0"></feFuncA></feComponentTransfer></filter></defs></mask></svg> <defs><filter id="colors664457861"><feColorMatrix type="matrix" values="0 0 0 0 0.19921875  0 0 0 0 0.19921875  0 0 0 0 0.19921875  0 0 0 1 0" class="icon-fecolormatrix"></feColorMatrix></filter> <filter id="colorsf7956487459"><feColorMatrix type="matrix" values="0 0 0 0 0.99609375  0 0 0 0 0.99609375  0 0 0 0 0.99609375  0 0 0 1 0" class="icon-fecolormatrix"></feColorMatrix></filter> <filter id="colorsb5879522916"><feColorMatrix type="matrix" values="0 0 0 0 0  0 0 0 0 0  0 0 0 0 0  0 0 0 1 0" class="icon-fecolormatrix"></feColorMatrix></filter></defs><rect v-gra="id" width="112" height="112" transform="translate(-6, -6)" style="pointer-events:none;" fill="url(#iUQVUDuqJWjl6ZKh6pl8y)"></rect></g> <g transform="translate(50,107)"><g data-gra="path-name" fill-rule="" class="tp-name iconsvg-namesvg" fill="url(#d9dc5252-04b4-42e3-a10b-f9f85101b544)" opacity="1" transform="matrix(1,0,0,1,0,0)"><g transform="scale(1)"><g><path d="" transform="translate(0, 0)"></path></g> <!----> <!----> <!----> <!----> <!----> <!----> <!----></g></g> <!----></g></g><defs v-gra="od"><linearGradient x1="0" y1="1" x2="0" y2="0" id="d9dc5252-04b4-42e3-a10b-f9f85101b544"><stop offset="0%" stop-color="#ff0844"></stop><stop offset="100%" stop-color="#ffb199"></stop></linearGradient><filter id="42443b3f1de60f6b6fd3b6a9844b4764" filterUnits="userSpaceOnUse"><feColorMatrix type="matrix" values="0 0 0 0 0.99609375  0 0 0 0 0.99609375  0 0 0 0 0.99609375  0 0 0 1 0"></feColorMatrix></filter></defs><defs v-gra="id"><filter id="89375f88-ac18-442a-9686-1a6653e38a69" filterUnits="userSpaceOnUse"><feColorMatrix type="matrix" values="0 0 0 0 0.99609375  0 0 0 0 0.99609375  0 0 0 0 0.99609375  0 0 0 1 0"></feColorMatrix></filter><linearGradient x1="0" y1="1" x2="0" y2="0" id="iUQVUDuqJWjl6ZKh6pl8y"><stop offset="0%" stop-color="#ff0844"></stop><stop offset="100%" stop-color="#ffb199"></stop></linearGradient><filter id="42443b3f1de60f6b6fd3b6a9844b4764" filterUnits="userSpaceOnUse"><feColorMatrix type="matrix" values="0 0 0 0 0.99609375  0 0 0 0 0.99609375  0 0 0 0 0.99609375  0 0 0 1 0"></feColorMatrix></filter></defs><mask v-gra="im" id="5b1fab92-983a-42b0-9d26-771cecdcee2d"><g fill="#333" class="iconsvg-imagesvg icon_container" filter="url(#89375f88-ac18-442a-9686-1a6653e38a69)"><rect fill="#ff0844" fill-opacity="0" stroke-width="2" x="0" y="0" width="100" height="100" class="image-rect"></rect> <svg viewBox="0 0 60 67.932475119731" x="0" y="0" width="100" height="100" class="image-svg-svg bn" style="overflow: visible;"><g hollow-target="iconBnOutline"><g mask="url(#099c952b-8bfc-4fb0-81ef-e5df94455376)"><svg xmlns="http://www.w3.org/2000/svg" xmlns:xlink="http://www.w3.org/1999/xlink" xml:space="preserve" version="1.1" style="shape-rendering: geometricprecision; text-rendering: geometricprecision; overflow: visible;" viewBox="0 0 312 353.25" x="0" y="0" fill-rule="evenodd" clip-rule="evenodd" width="60" height="67.932475119731" filtersec="colorsf7956487459"><g transform="scale(1, 1) skewX(0)"><defs><filter id="f22artc1TKC0_J58Zx8Oo"><feColorMatrix type="matrix" values="0 0 0 0 0.19921875  0 0 0 0 0.19921875  0 0 0 0 0.19921875  0 0 0 1 0"></feColorMatrix></filter></defs><g><path class="fil0" d="M312 99l0 155c0,8 -4,15 -11,19l-135 78c-6,3 -14,3 -21,0l-134 -78c-7,-4 -11,-11 -11,-19l0 -155c0,-8 4,-14 11,-18l134 -78c7,-4 15,-4 21,0l135 78c7,4 11,10 11,18zm-32 -1l-118 -68c-4,-3 -8,-3 -12,0l-118 68c-4,2 -7,6 -7,11l0 143 125 72c4,2 8,2 12,0l118 -68c4,-2 6,-6 6,-11l0 -136c0,-5 -2,-9 -6,-11z"></path></g></g></svg></g> <g><svg xmlns="http://www.w3.org/2000/svg" xmlns:xlink="http://www.w3.org/1999/xlink" viewBox="0 0 77.83200000000001 51.264" width="45" height="50.94936" x="7.5" y="8.491557559865498" class="image-svg-letter"><path transform="translate(1.008 50.544000000000004)" d="M12.02 0.36C12.02 0.58 12.17 0.72 12.38 0.72L30.74 0.72C30.96 0.72 31.10 0.58 31.10 0.36L31.10-0.50C31.10-0.72 30.96-0.86 30.74-0.86L25.63-0.86L25.63-23.47L36.22-48.96L40.61-48.96C40.82-48.96 40.97-49.10 40.97-49.32L40.97-50.18C40.97-50.40 40.82-50.54 40.61-50.54L30.10-50.54C29.88-50.54 29.74-50.40 29.74-50.18L29.74-49.32C29.74-49.10 29.88-48.96 30.10-48.96L34.56-48.96C31.25-40.90 27.86-33.12 24.55-25.06L13.32-48.96L18.86-48.96C19.08-48.96 19.22-49.10 19.22-49.32L19.22-50.18C19.22-50.40 19.08-50.54 18.86-50.54L-0.65-50.54C-0.86-50.54-1.01-50.40-1.01-50.18L-1.01-49.32C-1.01-49.10-0.86-48.96-0.65-48.96L3.67-48.96L17.42-20.09L17.42-0.86L12.38-0.86C12.17-0.86 12.02-0.72 12.02-0.50ZM42.19 0.22C42.05 0.50 42.19 0.72 42.48 0.72L76.46 0.72C76.68 0.72 76.82 0.58 76.82 0.36L76.82-18.50C76.82-18.86 76.18-18.94 76.10-18.58C74.23-7.70 69.05-0.86 59.26-0.86L51.55-0.86L76.39-50.04C76.54-50.33 76.39-50.54 76.10-50.54L45.50-50.54C45.29-50.54 45.14-50.40 45.14-50.18L45.14-34.34C45.14-33.98 45.79-33.91 45.86-34.27C47.16-42.26 51.55-48.96 59.04-48.96L66.82-48.96Z"></path></svg></g></g><mask id="099c952b-8bfc-4fb0-81ef-e5df94455376"><g fill="white"><svg xmlns="http://www.w3.org/2000/svg" xmlns:xlink="http://www.w3.org/1999/xlink" xml:space="preserve" version="1.1" style="shape-rendering: geometricprecision; text-rendering: geometricprecision; overflow: visible;" viewBox="0 0 312 353.25" x="0" y="0" fill-rule="evenodd" clip-rule="evenodd" width="60" height="67.932475119731" filtersec="colorsf7956487459"><g transform="scale(1, 1) skewX(0)"><defs></defs><g><path d="M312 99l0 155c0,8 -4,15 -11,19l-135 78c-6,3 -14,3 -21,0l-134 -78c-7,-4 -11,-11 -11,-19l0 -155c0,-8 4,-14 11,-18l134 -78c7,-4 15,-4 21,0l135 78c7,4 11,10 11,18zm-32 -1l-118 -68c-4,-3 -8,-3 -12,0l-118 68c-4,2 -7,6 -7,11l0 143 125 72c4,2 8,2 12,0l118 -68c4,-2 6,-6 6,-11l0 -136c0,-5 -2,-9 -6,-11z"></path></g></g></svg></g> <g fill="black"><svg xmlns="http://www.w3.org/2000/svg" xmlns:xlink="http://www.w3.org/1999/xlink" viewBox="0 0 77.83200000000001 51.264" width="45" height="50.94936" x="7.5" y="8.491557559865498" class="image-svg-letter"><path transform="translate(1.008 50.544000000000004)" d="M12.02 0.36C12.02 0.58 12.17 0.72 12.38 0.72L30.74 0.72C30.96 0.72 31.10 0.58 31.10 0.36L31.10-0.50C31.10-0.72 30.96-0.86 30.74-0.86L25.63-0.86L25.63-23.47L36.22-48.96L40.61-48.96C40.82-48.96 40.97-49.10 40.97-49.32L40.97-50.18C40.97-50.40 40.82-50.54 40.61-50.54L30.10-50.54C29.88-50.54 29.74-50.40 29.74-50.18L29.74-49.32C29.74-49.10 29.88-48.96 30.10-48.96L34.56-48.96C31.25-40.90 27.86-33.12 24.55-25.06L13.32-48.96L18.86-48.96C19.08-48.96 19.22-49.10 19.22-49.32L19.22-50.18C19.22-50.40 19.08-50.54 18.86-50.54L-0.65-50.54C-0.86-50.54-1.01-50.40-1.01-50.18L-1.01-49.32C-1.01-49.10-0.86-48.96-0.65-48.96L3.67-48.96L17.42-20.09L17.42-0.86L12.38-0.86C12.17-0.86 12.02-0.72 12.02-0.50ZM42.19 0.22C42.05 0.50 42.19 0.72 42.48 0.72L76.46 0.72C76.68 0.72 76.82 0.58 76.82 0.36L76.82-18.50C76.82-18.86 76.18-18.94 76.10-18.58C74.23-7.70 69.05-0.86 59.26-0.86L51.55-0.86L76.39-50.04C76.54-50.33 76.39-50.54 76.10-50.54L45.50-50.54C45.29-50.54 45.14-50.40 45.14-50.18L45.14-34.34C45.14-33.98 45.79-33.91 45.86-34.27C47.16-42.26 51.55-48.96 59.04-48.96L66.82-48.96Z"></path></svg></g><defs><filter id="b47d4054-819f-4a55-b938-a8223e8ddd58"><feGaussianBlur in="SourceGraphic" stdDeviation="1.26"></feGaussianBlur><feComponentTransfer><feFuncA type="discrete" tableValues="0 1 1 1 1 1 1 1 1 1 1 1 1 1 0"></feFuncA></feComponentTransfer></filter></defs></mask></svg> <defs><filter id="colors664457861"><feColorMatrix type="matrix" values="0 0 0 0 0.19921875  0 0 0 0 0.19921875  0 0 0 0 0.19921875  0 0 0 1 0" class="icon-fecolormatrix"></feColorMatrix></filter> <filter id="colorsf7956487459"><feColorMatrix type="matrix" values="0 0 0 0 0.99609375  0 0 0 0 0.99609375  0 0 0 0 0.99609375  0 0 0 1 0" class="icon-fecolormatrix"></feColorMatrix></filter> <filter id="colorsb5879522916"><feColorMatrix type="matrix" values="0 0 0 0 0  0 0 0 0 0  0 0 0 0 0  0 0 0 1 0" class="icon-fecolormatrix"></feColorMatrix></filter></defs></g></mask></svg>
